HIERARCHY
ROOT joint_Root
{
	OFFSET 0.0 0.0 0.0
	CHANNELS 6 Xposition Yposition Zposition Zrotation Xrotation Yrotation 
	JOINT Hips
	{
		OFFSET 4.5925 91.4895 -427.239
		CHANNELS 6 Xposition Yposition Zposition Zrotation Xrotation Yrotation 
		JOINT Spine
		{
			OFFSET 15.7357 0.0 0.0
			CHANNELS 6 Xposition Yposition Zposition Zrotation Xrotation Yrotation 
			JOINT Chest
			{
				OFFSET 8.98455 -0.406207 0.0
				CHANNELS 6 Xposition Yposition Zposition Zrotation Xrotation Yrotation 
				JOINT Neck
				{
					OFFSET 16.3773 0.0 0.0
					CHANNELS 6 Xposition Yposition Zposition Zrotation Xrotation Yrotation 
					JOINT Head
					{
						OFFSET 6.45672 0.0 0.0
						CHANNELS 6 Xposition Yposition Zposition Zrotation Xrotation Yrotation 
						End Site
						{
							OFFSET 0.0 0.0 0.0
						}
					}
				}
				JOINT Shoulder_L
				{
					OFFSET 12.9942 -0.242716 4.98039
					CHANNELS 6 Xposition Yposition Zposition Zrotation Xrotation Yrotation 
					JOINT UpperArm_L
					{
						OFFSET 5.34809 0.0 0.0
						CHANNELS 6 Xposition Yposition Zposition Zrotation Xrotation Yrotation 
						JOINT LowerArm_L
						{
							OFFSET 24.3286 1.87007e-05 0.0
							CHANNELS 6 Xposition Yposition Zposition Zrotation Xrotation Yrotation 
							JOINT Hand_L
							{
								OFFSET 22.2916 0.0 0.0
								CHANNELS 6 Xposition Yposition Zposition Zrotation Xrotation Yrotation 
								End Site
								{
									OFFSET 0.0 0.0 0.0
								}
							}
						}
					}
				}
				JOINT Shoulder_R
				{
					OFFSET 12.9945 -0.242716 -4.98039
					CHANNELS 6 Xposition Yposition Zposition Zrotation Xrotation Yrotation 
					JOINT UpperArm_R
					{
						OFFSET -5.34813 0.0 0.0
						CHANNELS 6 Xposition Yposition Zposition Zrotation Xrotation Yrotation 
						JOINT LowerArm_R
						{
							OFFSET -24.3289 0.000322201 0.0
							CHANNELS 6 Xposition Yposition Zposition Zrotation Xrotation Yrotation 
							JOINT Hand_R
							{
								OFFSET -22.2915 -0.000108084 0.0
								CHANNELS 6 Xposition Yposition Zposition Zrotation Xrotation Yrotation 
								End Site
								{
									OFFSET 0.0 0.0 0.0
								}
							}
						}
					}
				}
			}
		}
		JOINT UpperLeg_L
		{
			OFFSET -2.19248 -6.46944 0.0
			CHANNELS 6 Xposition Yposition Zposition Zrotation Xrotation Yrotation 
			JOINT LowerLeg_L
			{
				OFFSET 39.0811 0.0 -1.23785e-05
				CHANNELS 6 Xposition Yposition Zposition Zrotation Xrotation Yrotation 
				JOINT Foot_L
				{
					OFFSET 40.9854 0.0 -1.26872e-05
					CHANNELS 6 Xposition Yposition Zposition Zrotation Xrotation Yrotation 
					JOINT Toes_L
					{
						OFFSET 11.7543 0.0 0.0
						CHANNELS 6 Xposition Yposition Zposition Zrotation Xrotation Yrotation 
						End Site
						{
							OFFSET 0.0 0.0 0.0
						}
					}
				}
			}
		}
		JOINT UpperLeg_R
		{
			OFFSET -2.19251 6.46944 0.0
			CHANNELS 6 Xposition Yposition Zposition Zrotation Xrotation Yrotation 
			JOINT LowerLeg_R
			{
				OFFSET -39.0811 -0.00228153 -0.0401928
				CHANNELS 6 Xposition Yposition Zposition Zrotation Xrotation Yrotation 
				JOINT Foot_R
				{
					OFFSET -40.9854 0.0 0.0
					CHANNELS 6 Xposition Yposition Zposition Zrotation Xrotation Yrotation 
					JOINT Toes_R
					{
						OFFSET -11.7543 0.0 0.0
						CHANNELS 6 Xposition Yposition Zposition Zrotation Xrotation Yrotation 
						End Site
						{
							OFFSET 0.0 0.0 0.0
						}
					}
				}
			}
		}
	}
}
MOTION
Frames:	9
Frame Time:	0.0333333
0.000000 0.000000 0.000000 0.000000 0.000000 -0.000000 -1.568080 85.267100 0.299080 87.854100 -2.304870 11.785300 15.735700 0.000005 -0.000001 87.867600 79.758500 -87.809500 8.984550 -0.406207 -0.000000 12.703900 -0.752292 0.199957 16.377300 -0.000001 -0.000001 -2.862000 -3.364520 1.768630 6.456720 -0.000001 -0.000000 -12.856100 -3.467340 2.014570 12.994200 -0.242716 4.980390 -91.057900 2.842480 -69.575700 5.348090 -0.000007 -0.000001 -71.996700 12.205600 0.090028 24.328600 0.000019 0.000005 3.821200 15.054300 -14.423300 22.291600 -0.000001 0.000005 9.686200 5.023070 6.823660 12.994500 -0.242716 -4.980390 88.120800 8.511970 -77.501400 -5.348130 -0.000001 -0.000004 -68.314100 14.732800 -3.027120 -24.328900 0.000322 -0.000009 2.421900 15.574700 -8.955930 -22.291500 -0.000108 -0.000004 -13.691500 5.127120 4.484170 -2.192480 -6.469440 -0.000000 -171.731000 -10.989300 -9.255870 39.081100 -0.000007 -0.000012 -0.341324 0.254817 53.257500 40.985400 -0.000006 -0.000013 1.599240 7.470850 -81.971200 11.754300 -0.000000 0.000003 -0.000132 -0.001307 -16.627400 -2.192510 6.469440 -0.000001 178.711000 12.626200 171.297000 -39.081100 -0.002282 -0.040193 0.062775 -0.045415 52.663800 -40.985400 0.000008 0.000006 7.323050 4.887130 -81.738800 -11.754300 -0.000006 -0.000006 -0.556894 -0.683817 -17.191300
0.000000 0.000000 0.000000 0.000000 0.000000 -0.000000 -1.567610 87.299000 1.757340 88.066300 -0.963849 12.553800 15.735700 0.000005 -0.000001 88.244300 81.783800 -88.324300 8.984550 -0.406207 -0.000000 8.658580 -0.501588 -0.121783 16.377300 -0.000001 -0.000001 0.548198 -3.220870 1.276440 6.456720 -0.000001 -0.000000 -9.699640 -3.430250 1.683710 12.994200 -0.242716 4.980390 -90.630400 1.612140 -68.640900 5.348090 -0.000007 -0.000001 -64.947900 1.156100 -9.805800 24.328600 0.000019 0.000005 4.253890 12.926500 -18.391400 22.291600 -0.000001 0.000005 15.167400 5.015010 6.999000 12.994500 -0.242716 -4.980390 88.252500 7.331130 -76.553700 -5.348130 -0.000001 -0.000004 -60.651400 7.876870 -9.281750 -24.328900 0.000322 -0.000009 1.334170 7.697430 -9.872160 -22.291500 -0.000108 -0.000004 -6.403010 5.207330 2.542650 -2.192480 -6.469440 -0.000000 -172.223000 -9.139230 -3.940690 39.081100 -0.000007 -0.000012 -0.296810 0.289075 45.757100 40.985400 -0.000006 -0.000013 0.986063 7.148280 -79.190600 11.754300 -0.000000 0.000003 -0.000084 -0.000885 -16.611600 -2.192510 6.469440 -0.000001 177.524000 14.190300 176.946000 -39.081100 -0.002282 -0.040193 0.049128 -0.045200 45.418500 -40.985400 0.000008 0.000006 6.809450 5.941080 -78.754600 -11.754300 -0.000006 -0.000006 -0.642147 -0.785946 -17.645900
0.000000 0.000000 0.000000 0.000000 0.000000 -0.000000 -1.508560 89.142600 2.685590 88.523200 0.536555 10.680700 15.735700 0.000005 -0.000001 84.718500 84.792300 -85.139000 8.984550 -0.406207 -0.000000 2.602090 -0.938952 -0.818894 16.377300 -0.000001 -0.000001 5.271510 -2.763490 1.046710 6.456720 -0.000001 -0.000000 -6.133330 -2.601790 0.945301 12.994200 -0.242716 4.980390 -89.978200 -0.055420 -68.491300 5.348090 -0.000007 -0.000001 -57.643400 -7.370980 -21.976800 24.328600 0.000019 0.000005 6.234770 15.336300 -22.443400 22.291600 -0.000001 0.000005 14.517000 5.057620 6.068460 12.994500 -0.242716 -4.980390 88.673000 5.269360 -75.843100 -5.348130 -0.000001 -0.000004 -53.424500 -2.962160 -19.039100 -24.328900 0.000322 -0.000009 0.823677 4.190590 -11.144800 -22.291500 -0.000108 -0.000004 1.330510 5.271250 0.866635 -2.192480 -6.469440 -0.000000 -173.511000 -7.473600 -1.617280 39.081100 -0.000007 -0.000012 -0.236249 0.303015 37.942600 40.985400 -0.000006 -0.000013 0.450862 6.763820 -75.765000 11.754300 -0.000000 0.000003 -0.000038 -0.000446 -16.594900 -2.192510 6.469440 -0.000001 177.041000 15.462600 179.331000 -39.081100 -0.002282 -0.040193 0.036346 -0.041966 38.232800 -40.985400 0.000008 0.000006 6.236940 6.399050 -75.184500 -11.754300 -0.000006 -0.000006 -0.700784 -0.852688 -18.214600
0.000000 0.000000 0.000000 0.000000 0.000000 -0.000000 -1.480680 90.192800 3.314260 88.876400 1.219860 8.823180 15.735700 0.000005 -0.000001 76.293800 87.176100 -76.938200 8.984550 -0.406207 -0.000000 -2.286070 -1.281340 -1.314210 16.377300 -0.000001 -0.000001 8.306620 -2.523870 0.706562 6.456720 -0.000001 -0.000000 -2.978860 -1.979810 -0.025271 12.994200 -0.242716 4.980390 -89.198900 -2.049370 -68.643100 5.348090 -0.000007 -0.000001 -52.047400 -17.753700 -36.719100 24.328600 0.000019 0.000005 6.212300 13.692900 -24.695000 22.291600 -0.000001 0.000005 16.133200 5.074270 5.697200 12.994500 -0.242716 -4.980390 89.263300 2.863810 -75.568600 -5.348130 -0.000001 -0.000004 -49.946700 -17.410600 -33.455800 -24.328900 0.000322 -0.000009 -1.917300 -8.372540 -12.936500 -22.291500 -0.000108 -0.000004 6.213460 5.267390 0.968077 -2.192480 -6.469440 -0.000000 -173.933000 -8.086630 -0.463504 39.081100 -0.000007 -0.000012 -0.184352 0.288368 32.590800 40.985400 -0.000006 -0.000013 0.459396 7.818980 -73.438600 11.754300 -0.000000 0.000003 -0.000018 -0.000232 -16.586600 -2.192510 6.469440 -0.000001 176.901000 16.300000 -179.617000 -39.081100 -0.002282 -0.040193 0.029574 -0.039979 33.317500 -40.985400 0.000008 0.000006 6.098810 6.894520 -73.090100 -11.754300 -0.000006 -0.000006 -0.508517 -0.625846 -18.494500
0.000000 0.000000 0.000000 0.000000 0.000000 -0.000000 -1.280410 90.511700 3.829260 89.251500 0.715490 8.230920 15.735700 0.000005 -0.000001 69.677200 88.332000 -70.448900 8.984550 -0.406207 -0.000000 -4.644930 -1.074040 -1.588160 16.377300 -0.000001 -0.000001 8.956270 -2.174440 0.892606 6.456720 -0.000001 -0.000000 -2.225910 -1.570330 -0.729577 12.994200 -0.242716 4.980390 -87.994000 -5.272790 -69.135800 5.348090 -0.000007 -0.000001 -48.288700 -29.868900 -51.176300 24.328600 0.000019 0.000005 4.427280 8.562960 -27.476900 22.291600 -0.000001 0.000005 19.810500 5.074820 5.684790 12.994500 -0.242716 -4.980390 90.211900 -0.903460 -76.792200 -5.348130 -0.000001 -0.000004 -50.991300 -31.624900 -49.536200 -24.328900 0.000322 -0.000009 -7.556940 -21.911800 -19.564000 -22.291500 -0.000108 -0.000004 13.252000 5.262080 1.115540 -2.192480 -6.469440 -0.000000 -174.141000 -9.597410 0.580571 39.081100 -0.000007 -0.000012 -0.167279 0.285485 30.368400 40.985400 -0.000006 -0.000013 0.685739 8.689430 -72.765400 11.754300 -0.000000 0.000003 -0.000019 -0.000246 -16.587200 -2.192510 6.469440 -0.000001 175.861000 17.677600 -178.319000 -39.081100 -0.002282 -0.040193 0.018616 -0.025733 30.759600 -40.985400 0.000008 0.000006 6.272630 9.114190 -73.325500 -11.754300 -0.000006 -0.000006 -0.002433 -0.034012 -17.956200
0.000000 0.000000 0.000000 0.000000 0.000000 -0.000000 -1.020490 90.590100 4.017620 89.234000 -0.174667 8.078490 15.735700 0.000005 -0.000001 80.187900 88.363200 -80.770100 8.984550 -0.406207 -0.000000 -4.542590 -0.494907 -1.184810 16.377300 -0.000001 -0.000001 6.989640 -1.861700 0.727645 6.456720 -0.000001 -0.000000 -4.067670 -1.916580 -0.413254 12.994200 -0.242716 4.980390 -86.605500 -8.833530 -68.881200 5.348090 -0.000007 -0.000001 -42.674800 -43.177600 -61.223400 24.328600 0.000019 0.000005 3.618090 5.493090 -33.448000 22.291600 -0.000001 0.000005 24.412800 5.142020 4.140850 12.994500 -0.242716 -4.980390 91.346500 -5.675030 -76.629200 -5.348130 -0.000001 -0.000004 -52.237600 -43.650000 -65.682100 -24.328900 0.000322 -0.000009 -15.454600 -27.956400 -30.525800 -22.291500 -0.000108 -0.000004 21.619600 5.310600 -0.219967 -2.192480 -6.469440 -0.000000 -174.444000 -9.522760 0.976023 39.081100 -0.000007 -0.000012 -0.170662 0.298148 29.787300 40.985400 -0.000006 -0.000013 0.573411 7.684280 -72.709900 11.754300 -0.000000 0.000003 -0.000022 -0.000277 -16.588400 -2.192510 6.469440 -0.000001 175.008000 19.265800 -177.564000 -39.081100 -0.002282 -0.040193 0.007742 -0.007805 29.628300 -40.985400 0.000008 0.000006 6.563870 11.741000 -73.726200 -11.754300 -0.000006 -0.000006 -0.002430 -0.033972 -17.954500
0.000000 0.000000 0.000000 0.000000 0.000000 -0.000000 -0.847723 90.757100 3.881240 88.872900 -0.809155 7.239240 15.735700 0.000005 -0.000001 92.410700 88.229200 -92.703700 8.984550 -0.406207 -0.000000 -4.227080 0.179504 -0.579770 16.377300 -0.000001 -0.000001 4.888970 -1.962430 1.080290 6.456720 -0.000001 -0.000000 -6.647930 -2.707130 0.108483 12.994200 -0.242716 4.980390 -84.478600 -13.226100 -67.096900 5.348090 -0.000007 -0.000001 -32.944500 -56.932700 -61.332300 24.328600 0.000019 0.000005 5.453710 5.822900 -43.259400 22.291600 -0.000001 0.000005 31.688200 5.187040 3.044050 12.994500 -0.242716 -4.980390 93.196400 -11.486700 -74.336500 -5.348130 -0.000001 -0.000004 -53.180500 -55.375800 -77.181700 -24.328900 0.000322 -0.000009 -17.931300 -20.801300 -42.345700 -22.291500 -0.000108 -0.000004 25.710600 5.417570 -3.508640 -2.192480 -6.469440 -0.000000 -174.660000 -8.739390 0.337113 39.081100 -0.000007 -0.000012 -0.166484 0.297814 29.206300 40.985400 -0.000006 -0.000013 0.287494 6.247540 -72.354100 11.754300 -0.000000 0.000003 -0.000025 -0.000313 -16.589800 -2.192510 6.469440 -0.000001 175.516000 19.312300 -178.221000 -39.081100 -0.002282 -0.040193 0.005734 -0.004423 28.780500 -40.985400 0.000008 0.000006 6.443540 12.452800 -72.997600 -11.754300 -0.000006 -0.000006 -0.002577 -0.035724 -18.025800
0.000000 0.000000 0.000000 0.000000 0.000000 -0.000000 -0.652640 91.158000 3.636330 88.777500 -0.913609 5.042810 15.735700 0.000005 -0.000001 99.205600 88.791200 -99.393000 8.984550 -0.406207 -0.000000 -5.378860 0.407801 -0.356040 16.377300 -0.000001 -0.000001 4.962950 -2.245300 1.508140 6.456720 -0.000001 -0.000000 -8.394920 -3.410840 0.970270 12.994200 -0.242716 4.980390 -81.769100 -16.535100 -63.058300 5.348090 -0.000007 -0.000001 -35.547100 -70.068800 -67.974900 24.328600 0.000019 0.000005 6.112490 4.162150 -55.876100 22.291600 -0.000001 0.000005 34.002100 5.239430 1.710620 12.994500 -0.242716 -4.980390 95.587800 -16.042900 -70.505900 -5.348130 -0.000001 -0.000004 -60.077200 -64.987900 -90.023900 -24.328900 0.000322 -0.000009 -14.427000 -9.734610 -56.690300 -22.291500 -0.000108 -0.000004 31.108000 5.577790 -10.036000 -2.192480 -6.469440 -0.000000 -175.055000 -9.164870 -1.126220 39.081100 -0.000007 -0.000012 -0.149936 0.290990 27.260600 40.985400 -0.000006 -0.000013 0.356986 6.327490 -71.167100 11.754300 -0.000000 0.000003 -0.000021 -0.000268 -16.588000 -2.192510 6.469440 -0.000001 176.347000 19.415100 179.810000 -39.081100 -0.002282 -0.040193 0.007533 -0.008175 27.334900 -40.985400 0.000008 0.000006 6.213160 12.770800 -71.298100 -11.754300 -0.000006 -0.000006 -0.003032 -0.040962 -18.239000
0.000000 0.000000 0.000000 0.000000 0.000000 -0.000000 -0.393084 91.623600 3.747060 88.770200 -0.746787 2.684190 15.735700 0.000005 -0.000001 106.438000 89.768500 -106.613000 8.984550 -0.406207 -0.000000 -7.321770 0.153703 -0.340564 16.377300 -0.000001 -0.000001 5.976720 -2.689250 2.079200 6.456720 -0.000001 -0.000000 -8.252170 -3.158110 1.085010 12.994200 -0.242716 4.980390 -80.230400 -16.610000 -58.937400 5.348090 -0.000007 -0.000001 -47.238900 -78.566000 -84.947600 24.328600 0.000019 0.000005 5.309280 2.386760 -65.859900 22.291600 -0.000001 0.000005 36.316400 5.389610 -2.597940 12.994500 -0.242716 -4.980390 97.111000 -17.063800 -66.967900 -5.348130 -0.000001 -0.000004 -62.842000 -71.525900 -99.778400 -24.328900 0.000322 -0.000009 -11.584800 -4.744620 -68.031500 -22.291500 -0.000108 -0.000004 39.614600 5.674640 -18.008200 -2.192480 -6.469440 -0.000000 -175.464000 -10.179200 -2.029900 39.081100 -0.000007 -0.000012 -0.133245 0.294203 24.366100 40.985400 -0.000006 -0.000013 0.581516 7.219330 -69.761800 11.754300 -0.000000 0.000003 -0.000019 -0.000239 -16.586900 -2.192510 6.469440 -0.000001 176.648000 21.272800 178.416000 -39.081100 -0.002282 -0.040193 0.002759 0.001175 25.210200 -40.985400 0.000008 0.000006 5.889830 14.597700 -69.398400 -11.754300 -0.000006 -0.000006 -0.271443 -0.353663 -18.635400
